HIERARCHY
ROOT base
{
	OFFSET 0.0 0.0 0.0
	CHANNELS 6 Xposition Yposition Zposition Zrotation Yrotation Xrotation
	JOINT root
	{
		OFFSET 0 0 0
		CHANNELS 6 Xposition Yposition Zposition Zrotation Yrotation Xrotation
		JOINT chest
		{
			OFFSET 0 4.72302 0
			CHANNELS 3 Zrotation Yrotation Xrotation
			JOINT neck
			{
				OFFSET 0 4.47788 0
				CHANNELS 3 Zrotation Yrotation Xrotation
				End Site
				{
					OFFSET 0.0 0.0 0.0
				}
			}
			JOINT right_shoulder
			{
				OFFSET -0.481 4.87 3.6622
				CHANNELS 3 Zrotation Yrotation Xrotation
				JOINT right_elbow
				{
					OFFSET 0 -5.49576 0
					CHANNELS 3 Zrotation Yrotation Xrotation
					JOINT right_wrist
					{
						OFFSET 0 -5.17894 0
						CHANNELS 3 Zrotation Yrotation Xrotation
						End Site
						{
							OFFSET 0.0 0.0 0.0
						}
					}
				}
			}
			JOINT left_shoulder
			{
				OFFSET -0.481 4.87 -3.6622
				CHANNELS 3 Zrotation Yrotation Xrotation
				JOINT left_elbow
				{
					OFFSET 0 -5.49576 0
					CHANNELS 3 Zrotation Yrotation Xrotation
					JOINT left_wrist
					{
						OFFSET 0 -5.17894 0
						CHANNELS 3 Zrotation Yrotation Xrotation
						End Site
						{
							OFFSET 0.0 0.0 0.0
						}
					}
				}
			}
		}
		JOINT right_hip
		{
			OFFSET 0 0 1.69774
			CHANNELS 3 Zrotation Yrotation Xrotation
			JOINT right_knee
			{
				OFFSET 0 -8.43092 0
				CHANNELS 3 Zrotation Yrotation Xrotation
				JOINT right_ankle
				{
					OFFSET 0 -8.1974 0
					CHANNELS 3 Zrotation Yrotation Xrotation
					End Site
					{
						OFFSET 0.0 0.0 0.0
					}
				}
			}
		}
		JOINT left_hip
		{
			OFFSET 0 0 -1.69774
			CHANNELS 3 Zrotation Yrotation Xrotation
			JOINT left_knee
			{
				OFFSET 0 -8.43092 0
				CHANNELS 3 Zrotation Yrotation Xrotation
				JOINT left_ankle
				{
					OFFSET 0 -8.1974 0
					CHANNELS 3 Zrotation Yrotation Xrotation
					End Site
					{
						OFFSET 0.0 0.0 0.0
					}
				}
			}
		}
	}
	JOINT red_arrow
	{
		OFFSET 0 0 0
		CHANNELS 3 Zrotation Yrotation Xrotation
		End Site
		{
			OFFSET 0.0 0.0 0.0
		}
	}
	JOINT blue_arrow
	{
		OFFSET 0 0 0
		CHANNELS 3 Zrotation Yrotation Xrotation
		End Site
		{
			OFFSET 0.0 0.0 0.0
		}
	}
}
MOTION
Frames: 18
Frame Time: 0.0333333333333333
55.3243484973908 0 -6.96272378861904 0 -0.629618964587592 0 0 15.2767240285873 0 -16.0054180588926 -6.0658766183813 -11.5107177785522 -11.0091750576995 -2.41209728508327 -0.487514747489618 11.5847552632886 1.67163034342239 -0.686981166563583 8.55658140171046 8.40804596634566 -15.8900865269006 67.4477833746066 0 0 0 0 0 -9.3442173506529 -17.0429221030529 25.4775531609253 59.4639752537787 0 0 0 0 0 40.4537708772583 -6.05202138521602 4.18267102583057 -54.957706722444 0 0 30.9099754997869 8.28284886972953 6.48186979615869 30.0415254396224 5.68975835071069 6.77223957970836 -102.77766085655 0 0 -9.38593301340784 3.39216078523733 -6.32155738350731 0 0 0 0 0 0
57.2930077791214 0 -7.22181924283504 0 -1.10217341341948 0 0 15.5096371054649 0 -19.0330385834208 -8.49504820465013 -14.6381885834293 -6.21724558717363 -0.462221858523995 -0.463277148753493 11.6207665271907 -0.780778677020997 -2.58375985722712 28.2186686274084 21.5449819601264 -23.8482988529438 72.3877996540884 0 0 0 0 0 -34.635350765778 -23.3217746792992 37.9405714903305 51.3513565953935 0 0 0 0 0 31.7967585330355 -6.11635131067331 6.89568193645274 -45.3411179748624 0 0 33.3553303132916 9.93219656312115 8.64790762559135 51.8105817917438 0.138658724876976 12.7417729800109 -103.067254047169 0 0 2.8279840126176 7.62724252188864 -9.42048169906388 0 0 0 0 0 0
59.6006729900837 0 -7.70095927715302 0 -1.34799010813901 0 0 15.852782702446 0 -21.1353850963617 -4.35758979144698 -15.1151967241956 -5.61422621242917 -0.481700548417177 -2.1141823535192 14.1849197424164 -4.27000207437307 -5.32736990311829 40.4404443303142 30.5436643630303 -31.1500656773258 85.898412436183 0 0 0 0 0 -53.461371829592 -20.0079815274515 49.0635665936073 51.7385087930228 0 0 0 0 0 15.6724089936527 -3.71403856735524 5.99775415614088 -25.3000896103323 0 0 29.6942234779688 5.76228363377474 9.9315428027904 67.5923850010714 -5.76731312899151 9.30854894197266 -95.3308831894031 0 0 11.9543043331547 12.6388513731116 -18.3386719571223 0 0 0 0 0 0
61.9607694387436 0 -8.41929448843002 0 -1.36489649392656 0 0 16.1796031951904 0 -23.6218723229348 -0.294306635820746 -14.8020408674011 -6.07842298189928 -0.648085865749001 -2.97858941683385 14.9897095528204 -5.74056202446745 -6.40163468225281 41.833113433326 34.0164187172475 -36.6835540306981 102.459893135604 0 0 0 0 0 -62.6112293501357 -12.8002924042972 51.9906655745958 59.8894004164221 0 0 0 0 0 4.72063243296079 -0.817928658404964 3.69307215059013 -13.1114915317186 0 0 10.1109767647034 2.08003619468318 10.4294147975976 73.9669424970263 -7.05640181297411 4.68254751229079 -77.7105660742793 0 0 17.05998808383 14.5224807564517 -23.8702814631733 0 0 0 0 0 0
64.3157091677189 0 -9.2749394595623 0 -1.25928066133079 0 0 16.3891867876053 0 -24.3244251168751 1.82868834107666 -14.2969874578935 -9.15465985908864 -0.392801780754748 -3.41458540548634 12.9722736431516 -4.77158543305338 -5.07836827191686 41.7386262515785 34.0390100876704 -38.5169752608067 108.639766334361 0 0 0 0 0 -62.3113756458224 -6.39391046562682 48.3948030200168 64.9242402121511 0 0 0 0 0 -2.73732115875127 0.870633150950309 0.550694037035126 -11.6828917262397 0 0 -19.4678509929038 0.716728399380693 11.2428192175925 73.0763104089773 -6.44340434599909 2.44465884268502 -56.8446967448218 0 0 18.9121189916465 14.7200769708225 -22.0407175393893 0 0 0 0 0 0
66.7399516165256 0 -10.1382502108812 0 -1.0988067286731 0 0 16.2746728301048 0 -23.3821510649473 2.79903122565809 -13.7741173822059 -11.5057981355589 0.102605559193881 -3.21713521622002 7.08787725780074 -3.39028141654621 -3.81898725293877 43.434043485963 33.7341006507167 -37.9998125691393 106.291745373197 0 0 0 0 0 -60.4301203248094 -1.08637192112341 44.1926000282358 66.3275845394003 0 0 0 0 0 -9.17899979611551 1.21947195252674 -2.514301202544 -19.2732263093615 0 0 -34.4241746439556 0.082355423705118 7.98471371677155 69.9382776675697 -6.89882086349414 1.72413613188558 -38.4238541382158 0 0 20.4006529172903 14.5408249602809 -19.2630554459413 0 0 0 0 0 0
69.2667335271835 0 -10.9504844903946 0 -0.895724812812013 0 0 15.9138637065887 0 -21.5770183417676 3.58889767836411 -13.5493182835134 -12.5111995657626 0.59495145215619 -2.98580067105616 1.33446636566971 -2.27516391872915 -3.572231578106 43.7566510571182 29.6198914975287 -34.1002613418631 101.861725658662 0 0 0 0 0 -57.3310164422668 3.41645434245871 40.8677192131541 66.9258408088017 0 0 0 0 0 -13.8864992795491 1.14472059142609 -4.27439130101678 -33.2443782566225 0 0 -39.4398727712274 -0.131419536556132 5.09337503224471 65.2749771246764 -7.32099367613196 1.75471403264149 -26.3158753436966 0 0 20.6949255030576 13.8305615998942 -15.4953305798705 0 0 0 0 0 0
71.6694583237171 0 -11.7246035248041 0 -0.608778124078855 0 0 15.6233840703964 0 -21.1083477812902 5.08815335006055 -13.9750808082166 -12.9893710777073 -0.290634102035621 -2.76943547123466 -1.7781090172063 -1.50113879804131 -3.29788352851232 40.0877363975591 21.7496612161586 -27.3804908503401 94.9455375768093 0 0 0 0 0 -50.1341995424432 5.24749695887312 36.1543153415562 67.3529530281701 0 0 0 0 0 -12.5316611655244 -0.280199347644036 -3.99207185735402 -53.2189181446772 0 0 -34.8704091382706 -0.100042604370437 3.12894107359341 61.350091710087 -3.77685757947447 -0.750328698384445 -25.293508723067 0 0 0.735472102740192 16.0622850138361 13.9341279511318 0 0 0 0 0 0
73.6867908895016 0 -12.4927804797888 0 -0.193922956614431 0 0 15.8080134391785 0 -23.4767729058445 7.23699274723199 -14.6054960174007 -14.0601645700628 -1.88700961326726 -3.87247109607277 -3.56304989619258 -0.832802689523554 -2.48965672769407 34.1361937757099 13.6534308217585 -20.1105469266568 77.7619290968378 0 0 0 0 0 -37.758550723987 1.70470116011545 28.2356151971598 71.5440458953492 0 0 0 0 0 -4.43718419214637 -2.64071020202347 -2.68074028807223 -72.3045533084842 0 0 -23.044620996886 -2.30870312793238 2.59706446551489 61.1540155368285 -4.4207714152246 -4.22699898340104 -34.1508126613749 0 0 -0.94630553680273 16.5368519015852 11.6554434943784 0 0 0 0 0 0
75.628140515089 0 -13.3387678921223 0 0.342930546557796 0 0 16.2350319266319 0 -26.6896378189625 9.13278497394461 -15.6626548630972 -12.7847398285247 -1.24351561882087 -3.34814146968896 -3.57661931372726 -0.503712764009489 -2.84012093008859 18.9534784655043 11.0293581304895 -17.3869069727903 64.6709699675379 0 0 0 0 0 -20.9851911324097 -5.39753931515207 18.9124777070423 73.6833089547213 0 0 0 0 0 7.25872838140229 -4.75878635557001 -2.72657640673584 -88.9629885431735 0 0 -14.553817497894 -3.19168393557784 2.61634010950469 56.6015764196531 -1.86902991831911 -6.07042113234712 -35.4583021138121 0 0 7.76305962953169 11.8425977178349 14.5601638480152 0 0 0 0 0 0
77.5383674383163 0 -14.2418099939823 0 0.963721710444671 0 0 16.6203572630882 0 -28.909490567236 10.3591872821953 -16.2354750356697 -11.4489686276085 -1.00616208403878 -2.88267232460439 -0.450862116750948 1.56546497067566 -3.00838393504327 4.04481604370137 13.1801981544344 -17.3198767011456 50.9304222821294 0 0 0 0 0 0.625597313269493 -16.2191900108135 14.4291638666647 78.8427314009114 0 0 0 0 0 22.7042451420005 -6.41155261065089 -7.04452139573933 -100.925846308397 0 0 -5.06836145325092 -7.74212729415023 8.65637050052475 48.1687733357508 0.678041649785237 -6.92992544477035 -31.2209278848171 0 0 13.0618800365502 5.62787859138275 16.1219134442027 0 0 0 0 0 0
79.3579586267471 0 -15.1335252523422 0 1.57907153827717 0 0 16.9324987411499 0 -30.9493791464254 10.0637576947259 -17.0167472728098 -9.65121665366552 -1.6547630545661 -2.09960578641918 2.69275011266023 8.01613015635562 -4.0928621231162 -15.8967390939749 20.5158588853767 -24.8354064740189 38.5435532034203 0 0 0 0 0 23.0538217212942 -33.6229657612313 21.0863946835625 85.457578366772 0 0 0 0 0 44.8386576582966 -4.18619896034307 -11.5197229037625 -107.286671708836 0 0 7.01046000536176 -7.92305383363624 27.3286830236188 37.1416175694356 1.94233679244693 -7.03797601749069 -19.9590131605239 0 0 14.3904274744937 1.75965885778361 16.7142565188935 0 0 0 0 0 0
81.3025903046131 0 -15.8897253632545 0 2.11944818255392 0 0 17.0918887972832 0 -31.4922230428322 8.78045930176182 -19.0850150855664 -8.87498403434818 -2.57114114415183 -1.2348094349599 5.08245813773254 14.2618505318327 -4.48684440227969 -33.8051430327209 19.9952707064149 -32.1507749964713 33.8878503783294 0 0 0 0 0 39.6541004848442 -53.7506600013349 36.2148102387243 90.669504477112 0 0 0 0 0 64.84045713247 -3.24080948683635 -10.3644323988033 -105.04202566076 0 0 17.7523623654445 -5.74627061600363 39.7582086474066 22.9532616528451 1.19078340485346 -4.73075362073095 -3.58721663275117 0 0 10.547847921257 -1.48755491475408 16.285684916088 0 0 0 0 0 0
83.3796829938888 0 -16.6072433710098 0 2.69330216630481 0 0 17.2871086001396 0 -32.7705106143833 9.20031934721923 -21.7131900195834 -8.24396561577482 -5.35229556092919 -0.545250519253184 5.92469278438525 15.8035025167322 -4.15966462879722 -37.8219358034744 14.0542229123906 -30.3192662851967 36.474733300053 0 0 0 0 0 43.2616458385894 -64.9680768626686 49.7961959191501 95.5946855857165 0 0 0 0 0 73.079952298777 -5.85925685325394 -9.0270936463858 -90.1148248146152 0 0 22.759118481471 -6.01082067127103 37.4448873798108 15.5648644733235 1.06638772984109 -2.34643498392684 0.00223105457027005 0 0 1.93412440752091 -2.81878657601797 16.574871947106 0 0 0 0 0 0
85.6642172753811 0 -17.5400372624397 0 3.28793958365576 0 0 17.2746259212494 0 -30.6251244074852 9.75487943894259 -21.8961182585744 -9.75403571498783 -6.79734095605584 -0.739881008429411 8.45729570199226 16.4589149489604 -4.12946933648301 -42.0709246608889 7.56802679807503 -28.6489774521838 45.5376839889862 0 0 0 0 0 43.9119779641299 -64.5687534948127 52.5291428740185 98.622665539134 0 0 0 0 0 71.2906858823412 -8.54347100377651 -8.67297071716657 -73.2193342044024 0 0 22.4766921960428 -4.88577955882282 29.519031499135 8.42909990724342 -0.049174785355732 -2.09526615820178 -7.31314501603518 0 0 -13.373732703278 -3.54993955865845 16.3837747813464 0 0 0 0 0 0
87.9763170421123 0 -18.5123762130737 0 3.89618319072481 0 0 16.907221031189 0 -27.6353954556451 10.2680006158584 -21.3828342699651 -10.9561727189265 -8.05374692776246 -0.61288979526173 12.0862974394708 16.5592516392396 -3.15117011096618 -49.2973441928306 1.72513359427262 -29.6085547820203 52.060518061443 0 0 0 0 0 37.5337424745955 -61.3796795322807 55.8447767073257 96.8872237540605 0 0 0 0 0 71.3135345211252 -10.242495363642 -8.7689776590028 -64.7064323097086 0 0 23.3131901825433 -5.10156782483954 23.5318609193641 1.86876565525744 -1.28820275793006 -2.40817679398921 -19.2569328930964 0 0 -27.7330675880053 -5.51825320589178 8.60118008010633 0 0 0 0 0 0
90.3006845474243 0 -19.4058293938637 0 4.533692043485 0 0 16.3546112060547 0 -24.6585463495109 11.0365396310016 -21.368766120264 -12.5815812511469 -8.9239515804793 -0.374550197753744 14.9539268225442 16.2686554283194 -2.19800757319514 -53.7989087716766 -3.22445511821634 -28.6025449900516 56.5586586676654 0 0 0 0 0 31.3484553278734 -55.256713429181 55.300789026753 93.0341501187163 0 0 0 0 0 70.8313318553854 -11.4881534739991 -8.34123706885648 -60.4954431014773 0 0 23.3307414198818 -5.86791698886167 18.2729207463399 -3.30511327384958 -1.83823011545507 -1.73463718316022 -32.0172698854326 0 0 -36.4974529516164 -7.64924562677765 2.72986251020422 0 0 0 0 0 0
92.6476657420397 0 -20.2677581310272 0 5.21118454433168 0 0 15.6841371774673 0 -21.7820287501307 11.9808280613627 -21.7217148653253 -14.3140271023744 -8.90775681982044 -0.362958312788005 17.4234314468243 15.6312154833683 -1.68060871647941 -55.3427131454276 -6.45370236026773 -24.8934881832105 59.8647639240859 0 0 0 0 0 28.8190444057101 -46.8176964426493 48.9282808823541 87.9047941652526 0 0 0 0 0 67.3868652739435 -11.9616250662826 -7.12044026732679 -59.1635015718115 0 0 21.0355059126419 -5.73941439971557 13.8092811236976 -5.60414184014505 -1.6862366042561 -0.68674598758817 -46.7580953596949 0 0 -39.6123844897618 -9.15715317892433 -1.49272681143817 0 0 0 0 0 0
